<?xml version="1.0" encoding="UTF-8"?> <svg xmlns="http://www.w3.org/2000/svg" height="800" preserveAspectRatio="xMidYMid meet" viewBox="0 0 600 599.999999" width="800" zoomAndPan="magnify"><g fill="#131200"><path d="m55.640625-5.5625c-84.078125-32.765625-43.28125-183.921875 39.5625-190.109375 34.9375-2.78125 102.9375 42.65625 56.5625 76.359375-20.078125 14.53125-32.453125 6.171875-39.5625-13.609375-20.09375-57.1875-102.3125 93.96875-21.328125 93.96875 5.5625 0 14.84375-2.46875 16.6875-8.65625 2.796875-8.03125-17-6.484375-20.703125-7.40625-14.84375-3.40625-18.546875-30.609375-3.09375-35.546875 21.640625-6.8125 46.375-8.046875 68.9375-8.046875 24.71875 0 11.75 32.765625 7.109375 46.375-14.84375 42.65625-62.4375 63.046875-104.171875 46.671875zm0 0" transform="translate(31.237501 282.419501)"></path><path d="m14.84375-7.734375c-9.890625-24.40625-2.78125-73.875-3.40625-104.15625-.625-31.84375-14.53125-100.46875 40.5-85.015625 29.359375 8.046875 8.34375 104.171875 6.796875 123.34375-1.546875 19.46875 1.234375 44.203125-7.734375 62.4375-4.9375 10.203125-30.59375 17.3125-36.15625 3.390625zm0 0" transform="translate(204.944353 282.419501)"></path><path d="m71.09375-.625c-21.015625-3.390625-31.84375-65.21875-38.328125-83.140625-7.421875-19.78125-36.78125-79.4375-16.078125-98.609375 43.28125-40.5 42.046875 87.484375 69.25 87.78125 5.5625-22.875 16.0625-73.25 34-89.015625 6.484375-5.875 17.921875-7.734375 25.96875-5.25 15.453125 4.625 6.484375 26.265625 3.078125 36.15625-10.8125 30.90625-19.46875 62.140625-25.34375 93.96875-5.5625 29.671875-12.046875 64.296875-52.546875 58.109375zm0 0" transform="translate(275.416166 282.419501)"></path><path d="m18.234375-8.34375c-15.140625-18.546875-6.484375-70.78125-6.484375-92.109375.3125-22.875 1.234375-46.0625 1.546875-69.25 0-22.875 14.21875-24.421875 34-25.03125 12.046875-.625 69.234375-7.109375 73.875 10.5 8.96875 34-52.859375 22.5625-61.828125 42.359375-12.984375 28.125 81.609375 6.796875 49.15625 38.9375-12.671875 12.375-33.703125 8.34375-47.296875 19.484375-6.484375 4.9375-16.375 25.34375-4.015625 26.890625 22.875-.625 98.296875-12.0625 63.359375 35.234375-12.359375 17-87.78125 30.90625-102.3125 12.984375zm0 0" transform="translate(429.959634 282.419501)"></path><path d="m18.859375-1.234375c-13.609375-1.859375-10.515625-178.671875-3.40625-181.140625 21.015625-23.484375 74.8125-26.578125 99.84375-10.203125 36.78125 23.1875 8.34375 59.65625-9.890625 84.703125 33.078125 12.671875 53.171875 43.578125 24.421875 72.953125-25.65625 26.265625-75.109375 38.9375-110.96875 33.6875zm39.5625-107.875c4.953125-4.03125 42.96875-32.15625 37.09375-42.359375-4.953125-8.34375-27.515625 1.546875-32.765625 4.328125zm-8.65625 83.765625c12.359375-8.65625 47.609375-29.0625 45.4375-46.984375-1.859375-14.21875-28.125-6.1875-35.234375-2.46875-12.671875 6.484375-10.203125 33.0625-10.203125 49.453125zm0 0" transform="translate(.022218 498.549236)"></path><path d="m1.234375 2.46875c-6.484375-20.09375 14.84375-55.9375 21.953125-73.875 5.875-13.90625 40.484375-123.328125 67.375-111.890625 26.90625 12.046875 55.640625 143.734375 47.296875 169.390625-11.4375 36.15625-28.75-3.71875-38.640625-11.125-10.5-7.734375-53.15625-10.203125-59.03125 4.015625-3.71875 8.953125-27.828125 58.421875-38.953125 23.484375zm66.15625-66.765625c31.53125-1.546875 11.734375-31.21875 8.65625-34.3125-7.421875 6.5-30.921875 35.546875-8.65625 34.3125zm0 0" transform="translate(143.747625 498.549236)"></path><path d="m98.296875-2.46875c-27.515625 7.421875-63.0625-1.234375-78.203125-26.890625-31.84375-53.484375 9.578125-189.1875 90.265625-155.171875 29.359375 12.359375 40.484375 57.484375 23.484375 83.765625-7.734375 12.359375-25.34375 17.921875-38.953125 12.359375-17.921875-7.421875-5.859375-42.65625-5.25-51-23.796875-22.5625-39.5625 61.203125-37.703125 72.640625 2.78125 16.375 14.515625 37.09375 34.609375 29.359375 14.84375-5.5625 21.015625-23.171875 36.78125-27.5 21.640625-6.1875 13.921875 27.8125 8.96875 36.78125-7.109375 12.984375-19.78125 21.640625-34 25.65625zm0 0" transform="translate(292.418418 498.549236)"></path><path d="m26.578125-.625c-24.421875-4.328125-12.984375-83.453125-13.28125-99.828125-.3125-19.484375-13.921875-85.015625 11.734375-94.28125 46.6875-17 42.046875 32.765625 40.1875 63.359375 12.671875-13.59375 54.09375-70.78125 76.96875-56.875 42.046875 25.34375-21.640625 51.9375-35.234375 74.8125-16.078125 27.203125 58.421875 68.3125 24.109375 94.578125-17 13.296875-30.296875-4.640625-39.25-17.609375-4.640625-6.8125-31.234375-35.859375-31.234375-37.71875-2.15625 23.796875 4.953125 80.671875-34 73.5625zm0 0" transform="translate(443.561904 498.549236)"></path></g></svg> 