<svg height="1000" preserveAspectRatio="xMidYMid meet" viewBox="0 0 750 749.999995" width="1000" xmlns="http://www.w3.org/2000/svg" zoomAndPan="magnify"><path d="m125.515625-120.84375c-2.25-3.632812-5.449219-6.441406-9.59375-8.421875-4.148437-1.988281-9.164063-2.984375-15.046875-2.984375-11.0625 0-19.621094 3.589844-25.671875 10.765625-6.054687 7.167969-9.078125 16.976563-9.078125 29.421875 0 14.355469 3.367188 25.078125 10.109375 32.171875 6.75 7.085937 17.125 10.625 31.125 10.625 13.3125 0 24.03125-5.359375 32.15625-16.078125h-45.890625v-40.71875h93.609375v57.5625c-7.949219 13.667969-18.929687 25.386719-32.9375 35.15625-14 9.761719-31.71875 14.640625-53.15625 14.640625-19.023437 0-35.578125-3.929687-49.671875-11.796875-14.085938-7.863281-24.886719-18.882812-32.40625-33.0625-7.523438-14.175781-11.28125-30.34375-11.28125-48.5s3.757812-34.320312 11.28125-48.5c7.519531-14.175781 18.28125-25.195312 32.28125-33.0625 14.007812-7.863281 30.4375-11.796875 49.28125-11.796875 24.03125 0 43.609375 5.792969 58.734375 17.375 15.125 11.585937 24.070313 27.320313 26.84375 47.203125zm0 0" transform="translate(.000003 258.603195)"/><path d="m70.53125-183.609375v183.609375h-57.5625v-183.609375zm0 0" transform="translate(184.640574 258.603195)"/><path d="m197.875-183.609375-61.734375 183.609375h-74.421875l-61.71875-183.609375h61.203125l37.859375 126.296875 37.609375-126.296875zm0 0" transform="translate(257.77056 258.603195)"/><path d="m70.53125-137.703125v22.5625h57.0625v43.3125h-57.0625v25.921875h64.84375v45.90625h-122.40625v-183.609375h122.40625v45.90625zm0 0" transform="translate(445.263778 258.603195)"/><path d="m135.890625-94.140625c11.0625 2.59375 19.660156 7.914063 25.796875 15.953125 6.132812 8.042969 9.203125 17.335938 9.203125 27.875 0 16.085938-5.320313 28.492188-15.953125 37.21875-10.625 8.730469-25.882812 13.09375-45.765625 13.09375h-96.203125v-183.609375h93.609375c18.675781 0 33.375 4.0625 44.09375 12.1875s16.078125 19.96875 16.078125 35.53125c0 10.71875-2.8125 19.757813-8.4375 27.109375-5.617188 7.34375-13.089844 12.226562-22.421875 14.640625zm-65.359375-17.890625h22.3125c5.1875 0 9.03125-1.035156 11.53125-3.109375 2.507812-2.070313 3.765625-5.269531 3.765625-9.59375 0-4.5-1.257813-7.828125-3.765625-9.984375-2.5-2.164062-6.34375-3.25-11.53125-3.25h-22.3125zm26.203125 65.875c5.1875 0 9.03125-.992188 11.53125-2.984375 2.507813-1.988281 3.765625-5.234375 3.765625-9.734375 0-8.8125-5.101562-13.21875-15.296875-13.21875h-26.203125v25.9375zm0 0" transform="translate(.000003 465.603185)"/><path d="m130.703125-27.75h-61.203125l-9.078125 27.75h-60.421875l67.171875-183.609375h66.375l66.90625 183.609375h-60.671875zm-14-43.3125-16.609375-51.078125-16.59375 51.078125zm0 0" transform="translate(167.006365 465.603185)"/><path d="m7.78125-92.0625c0-18.15625 3.671875-34.320312 11.015625-48.5 7.351563-14.175781 17.859375-25.195312 31.515625-33.0625 13.65625-7.863281 29.734375-11.796875 48.234375-11.796875 15.90625 0 30.125 2.984375 42.65625 8.953125 12.53125 5.960938 22.726563 14.386719 30.59375 25.28125 7.875 10.898438 13.109375 23.605469 15.703125 38.125h-60.6875c-2.773438-6.050781-6.710938-10.757812-11.8125-14.125-5.09375-3.375-10.929688-5.0625-17.5-5.0625-9.679688 0-17.328125 3.632812-22.953125 10.890625-5.617187 7.261719-8.421875 17.027344-8.421875 29.296875 0 12.273438 2.804688 22.042969 8.421875 29.3125 5.625 7.261719 13.273437 10.890625 22.953125 10.890625 6.570312 0 12.40625-1.6875 17.5-5.0625 5.101562-3.375 9.039062-8.085937 11.8125-14.140625h60.6875c-2.59375 14.53125-7.828125 27.246094-15.703125 38.140625-7.867187 10.886719-18.0625 19.3125-30.59375 25.28125-12.53125 5.960937-26.75 8.9375-42.65625 8.9375-18.5 0-34.578125-3.929687-48.234375-11.796875-13.65625-7.863281-24.164062-18.882812-31.515625-33.0625-7.34375-14.175781-11.015625-30.34375-11.015625-48.5zm0 0" transform="translate(357.092775 465.603185)"/><path d="m123.953125 0-53.421875-79.609375v79.609375h-57.5625v-183.609375h57.5625v77.28125l52.65625-77.28125h65.078125l-63.265625 87.921875 67.421875 95.6875zm0 0" transform="translate(541.992764 465.603185)"/><path d="m125.515625-120.84375c-2.25-3.632812-5.449219-6.441406-9.59375-8.421875-4.148437-1.988281-9.164063-2.984375-15.046875-2.984375-11.0625 0-19.621094 3.589844-25.671875 10.765625-6.054687 7.167969-9.078125 16.976563-9.078125 29.421875 0 14.355469 3.367188 25.078125 10.109375 32.171875 6.75 7.085937 17.125 10.625 31.125 10.625 13.3125 0 24.03125-5.359375 32.15625-16.078125h-45.890625v-40.71875h93.609375v57.5625c-7.949219 13.667969-18.929687 25.386719-32.9375 35.15625-14 9.761719-31.71875 14.640625-53.15625 14.640625-19.023437 0-35.578125-3.929687-49.671875-11.796875-14.085938-7.863281-24.886719-18.882812-32.40625-33.0625-7.523438-14.175781-11.28125-30.34375-11.28125-48.5s3.757812-34.320312 11.28125-48.5c7.519531-14.175781 18.28125-25.195312 32.28125-33.0625 14.007812-7.863281 30.4375-11.796875 49.28125-11.796875 24.03125 0 43.609375 5.792969 58.734375 17.375 15.125 11.585937 24.070313 27.320313 26.84375 47.203125zm0 0" transform="translate(.000003 672.603174)"/><path d="m69.234375-183.609375v103.484375c0 8.46875 1.859375 15.167969 5.578125 20.09375 3.71875 4.929688 9.726562 7.390625 18.03125 7.390625 8.289062 0 14.425781-2.460937 18.40625-7.390625 3.976562-4.925781 5.96875-11.625 5.96875-20.09375v-103.484375h57.3125v103.484375c0 17.460938-3.632812 32.371094-10.890625 44.734375-7.261719 12.355469-17.203125 21.648437-29.828125 27.875-12.625 6.21875-26.714844 9.328125-42.265625 9.328125-15.5625 0-29.355469-3.109375-41.375-9.328125-12.011719-6.226563-21.390625-15.476563-28.140625-27.75-6.742188-12.28125-10.109375-27.234375-10.109375-44.859375v-103.484375zm0 0" transform="translate(184.640574 672.603174)"/><path d="m70.53125-183.609375v183.609375h-57.5625v-183.609375zm0 0" transform="translate(360.723345 672.603174)"/><path d="m89.46875-183.609375c19.1875 0 36 3.890625 50.4375 11.671875s25.546875 18.589844 33.328125 32.421875c7.78125 13.835937 11.671875 29.5625 11.671875 47.1875 0 17.46875-3.890625 33.203125-11.671875 47.203125s-18.890625 25.023438-33.328125 33.0625c-14.4375 8.042969-31.25 12.0625-50.4375 12.0625h-76.5v-183.609375zm-5.1875 132.265625c12.96875 0 23.253906-3.539062 30.859375-10.625 7.601563-7.09375 11.40625-17.210938 11.40625-30.359375 0-13.132813-3.804687-23.242187-11.40625-30.328125-7.605469-7.09375-17.890625-10.640625-30.859375-10.640625h-13.75v81.953125zm0 0" transform="translate(433.853377 672.603174)"/><path d="m70.53125-137.703125v22.5625h57.0625v43.3125h-57.0625v25.921875h64.84375v45.90625h-122.40625v-183.609375h122.40625v45.90625zm0 0" transform="translate(616.160038 672.603174)"/><path d="m629.261719 213.234375c-13.324219-11.929687-31.984375-21.042969-32.347657 6.15625-.667968 17.835937 28.035157 35.035156 41.519532 35.386719 14.003906.261718 27.25-32.578125 21.746094-48.6875-6.054688-15.988282-26.785157-10.273438-29.546876 4.023437-.535156.148438-.363281.796875-.679687 1.578125" fill="#f92f42"/><path d="m694.148438 156.074219c-2.003907-12.914063-8.460938-26.859375-21.511719-12.074219-8.855469 9.445312-.441407 32.609375 7.175781 39.277344 7.925781 6.828125 31.113281-4.832032 35.574219-16.328125 4.054687-11.65625-10.585938-18.457031-18.964844-11.929688-.394531-.167969-.578125.273438-1.144531.546875" fill="#ffd535"/><path d="m710.722656 83.714844c-4.460937-9.921875-12.90625-19.832032-20.628906-5.582032-5.34375 9.222657 6.703125 26.09375 14.515625 29.972657 8.105469 3.964843 25-9.707031 26.230469-19.707031.886718-10.070313-12.828125-12.726563-18.441406-5.96875-.363282-.042969-.417969.339843-.839844.664062" fill="#249b41"/><path d="m634.855469 51.796875c-12.523438-4.480469-27.96875-5.46875-20.527344 13.351563 4.527344 12.5 29.132813 16.265624 38.539063 12.703124 9.714843-3.765624 9.648437-30.140624 1.292968-39.71875-8.664062-9.289062-21.34375.464844-19.246094 11.121094-.320312.273438 0 .660156-.011718 1.273438" fill="#1b96e1"/><path d="m609.367188 122.5c-8.171876-3.488281-18.460938-4.828125-14.285157 8.101562 2.511719 8.535157 18.824219 12.058594 25.269531 10.078126 6.65625-2.113282 7.675782-19.761719 2.488282-26.5-5.386719-6.574219-14.273438-.566407-13.3125 6.644531-.214844.136719-.042969.417969-.078125.851562" fill="#fca633"/><path d="m725.691406 16.464844c-3.34375-8.257813-9.695312-16.4531252-15.816406-4.34375-4.25 7.835937 4.855469 21.847656 10.832031 24.988281 6.195313 3.1875 19.351563-8.605469 20.414063-17.027344.78125-8.492187-9.726563-10.488281-14.128906-4.707031-.261719-.046875-.328126.277344-.667969.558594" fill="#9224a2"/></svg>